<?xml version="1.0" encoding="UTF-8" standalone="no"?>
<!DOCTYPE svg PUBLIC "-//W3C//DTD SVG 1.1//EN" "http://www.w3.org/Graphics/SVG/1.1/DTD/svg11.dtd">
<svg width="100%" height="100%" viewBox="0 0 800 800" version="1.1" xmlns="http://www.w3.org/2000/svg" xmlns:xlink="http://www.w3.org/1999/xlink" xml:space="preserve" xmlns:serif="http://www.serif.com/" style="fill-rule:evenodd;clip-rule:evenodd;stroke-linejoin:round;stroke-miterlimit:2;">
    <g transform="matrix(1.12409,0,0,1.12409,-49.6358,-49.6359)">
        <path d="M613.405,629.44L182.54,629.44C113.987,629.44 56.935,573.353 57.189,504.801C57.366,457.088 84.459,415.722 124.073,395.087C131.864,391.03 136.286,382.445 134.743,373.798C133.381,366.169 132.702,358.305 132.773,350.27C133.387,280.987 190.854,224.541 259.715,224.548C260.955,224.548 262.211,224.566 263.458,224.603C287.92,225.329 310.632,232.994 329.72,245.683C333.203,247.999 337.15,249.118 341.043,249.118C347.499,249.118 353.808,246.039 357.61,240.234C385.084,198.282 432.483,170.56 486.375,170.56C571.349,170.56 640.234,239.444 640.234,324.419C640.234,334.929 639.166,345.185 637.147,355.096C635.078,365.254 641.144,375.367 651.084,378.312C703.831,393.942 742.391,442.563 742.807,500.284C743.317,571.318 684.443,629.44 613.405,629.44Z" style="fill:white;fill-rule:nonzero;"/>
    </g>
    <path d="M761.498,389.203C749.752,373.821 735.734,360.429 719.835,349.399C712.366,344.217 704.56,339.612 696.47,335.609C696.667,331.88 696.769,328.148 696.769,324.419C696.769,296.041 691.197,268.482 680.21,242.508C669.611,217.448 654.45,194.954 635.145,175.65C615.841,156.348 593.347,141.185 568.289,130.586C542.313,119.6 514.756,114.03 486.378,114.03C450.841,114.03 415.695,123.077 384.737,140.193C364.706,151.268 346.553,165.63 331.114,182.507C310.309,173.691 287.962,168.774 265.138,168.097C263.348,168.044 261.528,168.017 259.728,168.017C235.285,168.015 211.46,172.845 188.913,182.375C167.257,191.528 147.747,204.593 130.927,221.208C114.074,237.858 100.762,257.239 91.36,278.818C81.551,301.336 76.467,325.208 76.249,349.77C76.224,352.579 76.265,355.393 76.366,358.202C57.016,372.03 40.49,389.599 27.844,409.931C10.186,438.317 0.786,471.051 0.661,504.59C0.571,528.884 5.338,552.54 14.83,574.901C23.908,596.284 36.895,615.544 53.432,632.143C70.174,648.946 89.692,662.169 111.445,671.442C134.054,681.082 157.975,685.969 182.54,685.969L613.405,685.969C638.588,685.969 663.092,680.957 686.242,671.075C708.528,661.561 728.508,647.993 745.629,630.747C762.551,613.705 775.817,593.933 785.056,571.979C794.71,549.044 799.514,524.784 799.334,499.874C799.19,479.546 795.746,459.564 789.104,440.484C782.681,422.034 773.393,404.779 761.498,389.203ZM613.405,629.44L182.54,629.44C113.987,629.44 56.935,573.353 57.189,504.801C57.366,457.088 84.459,415.722 124.073,395.087C131.864,391.03 136.286,382.445 134.743,373.798C133.381,366.169 132.702,358.305 132.773,350.27C133.387,280.987 190.854,224.541 259.715,224.548C260.955,224.548 262.211,224.566 263.458,224.603C287.92,225.329 310.632,232.994 329.72,245.683C333.203,247.999 337.15,249.118 341.043,249.118C347.499,249.118 353.808,246.039 357.61,240.234C385.084,198.282 432.483,170.56 486.375,170.56C571.349,170.56 640.234,239.444 640.234,324.419C640.234,334.929 639.166,345.185 637.147,355.096C635.078,365.254 641.144,375.367 651.084,378.312C703.831,393.942 742.391,442.563 742.807,500.284C743.317,571.318 684.443,629.44 613.405,629.44Z" style="fill-rule:nonzero;"/>
</svg>
