<?xml version="1.0" encoding="UTF-8" standalone="no"?>
<!DOCTYPE svg PUBLIC "-//W3C//DTD SVG 1.1//EN" "http://www.w3.org/Graphics/SVG/1.1/DTD/svg11.dtd">
<svg id="logo" width="100%" height="100%" viewBox="0 0 154 158" version="1.1" xmlns="http://www.w3.org/2000/svg" xmlns:xlink="http://www.w3.org/1999/xlink" xml:space="preserve" xmlns:serif="http://www.serif.com/" style="fill-rule:evenodd;clip-rule:evenodd;stroke-linejoin:round;stroke-miterlimit:2;">
    <g transform="matrix(1,0,0,1,-1009.61,-1243.05)">
        <g transform="matrix(2.66667,0,0,2.66667,0,0)">
            <g transform="matrix(0.375,0,0,0.375,0,0)">
                <path d="M1162.72,1271.16C1162.72,1255.64 1150.14,1243.05 1134.61,1243.05C1107.05,1243.05 1065.28,1243.05 1037.73,1243.05C1022.2,1243.05 1009.61,1255.64 1009.61,1271.16C1009.61,1298.26 1009.61,1338.55 1009.61,1362.27C1009.61,1373.68 1017.39,1383.63 1028.47,1386.39C1051.14,1392.03 1086.17,1400.75 1086.17,1400.75C1086.17,1400.75 1121.2,1392.03 1143.87,1386.39C1154.95,1383.63 1162.72,1373.68 1162.72,1362.27C1162.72,1338.55 1162.72,1298.26 1162.72,1271.16ZM1091.64,1389.14L1091.64,1253.16L1132.82,1253.16C1143.84,1253.16 1152.77,1262.09 1152.77,1273.1L1152.77,1286.4C1152.77,1295.39 1146.75,1303.27 1138.08,1305.64L1116.58,1311.52L1116.58,1290.84L1127.87,1287.76C1130.79,1286.96 1132.82,1284.3 1132.82,1281.26L1132.82,1279.78C1132.82,1276.09 1129.83,1273.1 1126.14,1273.1L1111.59,1273.1L1111.59,1278.58L1111.59,1278.58L1111.59,1336.55L1111.59,1336.55L1111.59,1363.6L1127.72,1359.56C1130.72,1358.81 1132.82,1356.12 1132.82,1353.03L1132.82,1314.73C1143.84,1314.73 1152.77,1323.65 1152.77,1334.67L1152.77,1358.29C1152.77,1367.44 1146.54,1375.42 1137.66,1377.64L1091.64,1389.14ZM1081.01,1326.42L1081.01,1389.14L1035,1377.64C1026.12,1375.42 1019.89,1367.44 1019.89,1358.29L1019.89,1332.51C1019.89,1323.52 1025.91,1315.64 1034.58,1313.27L1086.66,1299.03L1086.66,1319.7L1044.8,1331.15C1041.87,1331.95 1039.84,1334.61 1039.84,1337.65L1039.84,1353.03C1039.84,1356.12 1041.94,1358.81 1044.94,1359.56L1061.07,1363.6L1061.07,1331.87L1081.01,1326.42ZM1039.51,1253.16C1028.5,1253.16 1019.57,1262.09 1019.57,1273.1C1019.57,1273.1 1019.57,1273.1 1019.57,1273.1L1061.07,1273.1L1061.07,1300.85L1081.01,1295.4L1081.01,1253.16C1081.01,1253.16 1057.45,1253.16 1039.51,1253.16Z" style="fill: #ffffff;"/>
            </g>
        </g>
    </g>
</svg>
